<svg width="90" height="60" viewBox="0 0 90 60" fill="none" xmlns="http://www.w3.org/2000/svg">
<path opacity="0.5" d="M31.0711 17.4975C24.7714 11.1978 29.2331 0.426392 38.1421 0.426392H74.7107C83.6197 0.426392 88.0814 11.1978 81.7817 17.4975L63.4975 35.7817C59.5922 39.687 53.2606 39.687 49.3553 35.7817L31.0711 17.4975Z" fill="#0369A1"/>
<g clip-path="url(#clip0_13_157)">
<path d="M17.9876 10.6667H46.1685C46.1685 10.6667 43.8203 46.0189 32.0781 46.0189C26.342 46.0189 22.8476 37.5827 20.7736 28.9523C18.602 19.9158 17.9876 10.6667 17.9876 10.6667Z" stroke="#78350F" stroke-width="1.5" stroke-linecap="round" stroke-linejoin="round"/>
<path d="M46.1685 10.6667C46.1685 10.6667 48.6251 8.04621 50.6667 7.99997C54.6667 7.90941 55.4061 10.6667 55.4061 10.6667C56.1891 12.2921 56.8152 16.5181 53.0579 20.4191C49.3003 24.32 45.0941 27.7333 43.3824 28.9523" stroke="#78350F" stroke-width="1.5" stroke-linecap="round" stroke-linejoin="round"/>
<path d="M17.9874 10.6667C17.9874 10.6667 15.4279 8.01637 13.3332 8.00002C9.33319 7.9688 8.5937 10.6667 8.5937 10.6667C7.81087 12.2921 7.18463 16.5181 10.9421 20.4191C14.6996 24.32 19.0619 27.7333 20.7734 28.9525" stroke="#78350F" stroke-width="1.5" stroke-linecap="round" stroke-linejoin="round"/>
<path d="M22.6843 53.3333C22.6843 48.4571 32.0779 46.0189 32.0779 46.0189C32.0779 46.0189 41.4717 48.4571 41.4717 53.3333H22.6843Z" stroke="#78350F" stroke-width="1.5" stroke-linecap="round" stroke-linejoin="round"/>
</g>
<defs>
<clipPath id="clip0_13_157">
<rect width="90" height="60" fill="white"/>
</clipPath>
</defs>
</svg>
